<svg xmlns="http://www.w3.org/2000/svg" width="578" height="210" viewBox="0 0 578 210"><g transform="translate(1795 5)"><rect width="3" height="3" transform="translate(-1795 -5)" fill="#bebebe"/><rect width="3" height="3" transform="translate(-1772 -5)" fill="#bebebe"/><rect width="3" height="3" transform="translate(-1749 -5)" fill="#bebebe"/><rect width="3" height="3" transform="translate(-1726 -5)" fill="#bebebe"/><rect width="3" height="3" transform="translate(-1703 -5)" fill="#bebebe"/><rect width="3" height="3" transform="translate(-1680 -5)" fill="#bebebe"/><rect width="3" height="3" transform="translate(-1657 -5)" fill="#bebebe"/><rect width="3" height="3" transform="translate(-1634 -5)" fill="#bebebe"/><rect width="3" height="3" transform="translate(-1611 -5)" fill="#bebebe"/><rect width="3" height="3" transform="translate(-1588 -5)" fill="#bebebe"/><rect width="3" height="3" transform="translate(-1565 -5)" fill="#bebebe"/><rect width="3" height="3" transform="translate(-1542 -5)" fill="#bebebe"/><rect width="3" height="3" transform="translate(-1519 -5)" fill="#bebebe"/><rect width="3" height="3" transform="translate(-1496 -5)" fill="#bebebe"/><rect width="3" height="3" transform="translate(-1473 -5)" fill="#bebebe"/><rect width="3" height="3" transform="translate(-1450 -5)" fill="#bebebe"/><rect width="3" height="3" transform="translate(-1427 -5)" fill="#bebebe"/><rect width="3" height="3" transform="translate(-1404 -5)" fill="#bebebe"/><rect width="3" height="3" transform="translate(-1381 -5)" fill="#bebebe"/><rect width="3" height="3" transform="translate(-1358 -5)" fill="#bebebe"/><rect width="3" height="3" transform="translate(-1335 -5)" fill="#bebebe"/><rect width="3" height="3" transform="translate(-1312 -5)" fill="#bebebe"/><rect width="3" height="3" transform="translate(-1289 -5)" fill="#bebebe"/><rect width="3" height="3" transform="translate(-1266 -5)" fill="#bebebe"/><rect width="3" height="3" transform="translate(-1243 -5)" fill="#bebebe"/><rect width="3" height="3" transform="translate(-1220 -5)" fill="#bebebe"/><rect width="3" height="3" transform="translate(-1795 18)" fill="#bebebe"/><rect width="3" height="3" transform="translate(-1772 18)" fill="#bebebe"/><rect width="3" height="3" transform="translate(-1749 18)" fill="#bebebe"/><rect width="3" height="3" transform="translate(-1726 18)" fill="#bebebe"/><rect width="3" height="3" transform="translate(-1703 18)" fill="#bebebe"/><rect width="3" height="3" transform="translate(-1680 18)" fill="#bebebe"/><rect width="3" height="3" transform="translate(-1657 18)" fill="#bebebe"/><rect width="3" height="3" transform="translate(-1634 18)" fill="#bebebe"/><rect width="3" height="3" transform="translate(-1611 18)" fill="#bebebe"/><rect width="3" height="3" transform="translate(-1588 18)" fill="#bebebe"/><rect width="3" height="3" transform="translate(-1565 18)" fill="#bebebe"/><rect width="3" height="3" transform="translate(-1542 18)" fill="#bebebe"/><rect width="3" height="3" transform="translate(-1519 18)" fill="#bebebe"/><rect width="3" height="3" transform="translate(-1496 18)" fill="#bebebe"/><rect width="3" height="3" transform="translate(-1473 18)" fill="#bebebe"/><rect width="3" height="3" transform="translate(-1450 18)" fill="#bebebe"/><rect width="3" height="3" transform="translate(-1427 18)" fill="#bebebe"/><rect width="3" height="3" transform="translate(-1404 18)" fill="#bebebe"/><rect width="3" height="3" transform="translate(-1381 18)" fill="#bebebe"/><rect width="3" height="3" transform="translate(-1358 18)" fill="#bebebe"/><rect width="3" height="3" transform="translate(-1335 18)" fill="#bebebe"/><rect width="3" height="3" transform="translate(-1312 18)" fill="#bebebe"/><rect width="3" height="3" transform="translate(-1289 18)" fill="#bebebe"/><rect width="3" height="3" transform="translate(-1266 18)" fill="#bebebe"/><rect width="3" height="3" transform="translate(-1243 18)" fill="#bebebe"/><rect width="3" height="3" transform="translate(-1220 18)" fill="#bebebe"/><rect width="3" height="3" transform="translate(-1795 41)" fill="#bebebe"/><rect width="3" height="3" transform="translate(-1772 41)" fill="#bebebe"/><rect width="3" height="3" transform="translate(-1749 41)" fill="#bebebe"/><rect width="3" height="3" transform="translate(-1726 41)" fill="#bebebe"/><rect width="3" height="3" transform="translate(-1703 41)" fill="#bebebe"/><rect width="3" height="3" transform="translate(-1680 41)" fill="#bebebe"/><rect width="3" height="3" transform="translate(-1657 41)" fill="#bebebe"/><rect width="3" height="3" transform="translate(-1634 41)" fill="#bebebe"/><rect width="3" height="3" transform="translate(-1611 41)" fill="#bebebe"/><rect width="3" height="3" transform="translate(-1588 41)" fill="#bebebe"/><rect width="3" height="3" transform="translate(-1565 41)" fill="#bebebe"/><rect width="3" height="3" transform="translate(-1542 41)" fill="#bebebe"/><rect width="3" height="3" transform="translate(-1519 41)" fill="#bebebe"/><rect width="3" height="3" transform="translate(-1496 41)" fill="#bebebe"/><rect width="3" height="3" transform="translate(-1473 41)" fill="#bebebe"/><rect width="3" height="3" transform="translate(-1450 41)" fill="#bebebe"/><rect width="3" height="3" transform="translate(-1427 41)" fill="#bebebe"/><rect width="3" height="3" transform="translate(-1404 41)" fill="#bebebe"/><rect width="3" height="3" transform="translate(-1381 41)" fill="#bebebe"/><rect width="3" height="3" transform="translate(-1358 41)" fill="#bebebe"/><rect width="3" height="3" transform="translate(-1335 41)" fill="#bebebe"/><rect width="3" height="3" transform="translate(-1312 41)" fill="#bebebe"/><rect width="3" height="3" transform="translate(-1289 41)" fill="#bebebe"/><rect width="3" height="3" transform="translate(-1266 41)" fill="#bebebe"/><rect width="3" height="3" transform="translate(-1243 41)" fill="#bebebe"/><rect width="3" height="3" transform="translate(-1220 41)" fill="#bebebe"/><rect width="3" height="3" transform="translate(-1795 64)" fill="#bebebe"/><rect width="3" height="3" transform="translate(-1772 64)" fill="#bebebe"/><rect width="3" height="3" transform="translate(-1749 64)" fill="#bebebe"/><rect width="3" height="3" transform="translate(-1726 64)" fill="#bebebe"/><rect width="3" height="3" transform="translate(-1703 64)" fill="#bebebe"/><rect width="3" height="3" transform="translate(-1680 64)" fill="#bebebe"/><rect width="3" height="3" transform="translate(-1657 64)" fill="#bebebe"/><rect width="3" height="3" transform="translate(-1634 64)" fill="#bebebe"/><rect width="3" height="3" transform="translate(-1611 64)" fill="#bebebe"/><rect width="3" height="3" transform="translate(-1588 64)" fill="#bebebe"/><rect width="3" height="3" transform="translate(-1565 64)" fill="#bebebe"/><rect width="3" height="3" transform="translate(-1542 64)" fill="#bebebe"/><rect width="3" height="3" transform="translate(-1519 64)" fill="#bebebe"/><rect width="3" height="3" transform="translate(-1496 64)" fill="#bebebe"/><rect width="3" height="3" transform="translate(-1473 64)" fill="#bebebe"/><rect width="3" height="3" transform="translate(-1450 64)" fill="#bebebe"/><rect width="3" height="3" transform="translate(-1427 64)" fill="#bebebe"/><rect width="3" height="3" transform="translate(-1404 64)" fill="#bebebe"/><rect width="3" height="3" transform="translate(-1381 64)" fill="#bebebe"/><rect width="3" height="3" transform="translate(-1358 64)" fill="#bebebe"/><rect width="3" height="3" transform="translate(-1335 64)" fill="#bebebe"/><rect width="3" height="3" transform="translate(-1312 64)" fill="#bebebe"/><rect width="3" height="3" transform="translate(-1289 64)" fill="#bebebe"/><rect width="3" height="3" transform="translate(-1266 64)" fill="#bebebe"/><rect width="3" height="3" transform="translate(-1243 64)" fill="#bebebe"/><rect width="3" height="3" transform="translate(-1220 64)" fill="#bebebe"/><rect width="3" height="3" transform="translate(-1795 87)" fill="#bebebe"/><rect width="3" height="3" transform="translate(-1772 87)" fill="#bebebe"/><rect width="3" height="3" transform="translate(-1749 87)" fill="#bebebe"/><rect width="3" height="3" transform="translate(-1726 87)" fill="#bebebe"/><rect width="3" height="3" transform="translate(-1703 87)" fill="#bebebe"/><rect width="3" height="3" transform="translate(-1680 87)" fill="#bebebe"/><rect width="3" height="3" transform="translate(-1657 87)" fill="#bebebe"/><rect width="3" height="3" transform="translate(-1634 87)" fill="#bebebe"/><rect width="3" height="3" transform="translate(-1611 87)" fill="#bebebe"/><rect width="3" height="3" transform="translate(-1588 87)" fill="#bebebe"/><rect width="3" height="3" transform="translate(-1565 87)" fill="#bebebe"/><rect width="3" height="3" transform="translate(-1542 87)" fill="#bebebe"/><rect width="3" height="3" transform="translate(-1519 87)" fill="#bebebe"/><rect width="3" height="3" transform="translate(-1496 87)" fill="#bebebe"/><rect width="3" height="3" transform="translate(-1473 87)" fill="#bebebe"/><rect width="3" height="3" transform="translate(-1450 87)" fill="#bebebe"/><rect width="3" height="3" transform="translate(-1427 87)" fill="#bebebe"/><rect width="3" height="3" transform="translate(-1404 87)" fill="#bebebe"/><rect width="3" height="3" transform="translate(-1381 87)" fill="#bebebe"/><rect width="3" height="3" transform="translate(-1358 87)" fill="#bebebe"/><rect width="3" height="3" transform="translate(-1335 87)" fill="#bebebe"/><rect width="3" height="3" transform="translate(-1312 87)" fill="#bebebe"/><rect width="3" height="3" transform="translate(-1289 87)" fill="#bebebe"/><rect width="3" height="3" transform="translate(-1266 87)" fill="#bebebe"/><rect width="3" height="3" transform="translate(-1243 87)" fill="#bebebe"/><rect width="3" height="3" transform="translate(-1220 87)" fill="#bebebe"/><rect width="3" height="3" transform="translate(-1795 110)" fill="#bebebe"/><rect width="3" height="3" transform="translate(-1772 110)" fill="#bebebe"/><rect width="3" height="3" transform="translate(-1749 110)" fill="#bebebe"/><rect width="3" height="3" transform="translate(-1726 110)" fill="#bebebe"/><rect width="3" height="3" transform="translate(-1703 110)" fill="#bebebe"/><rect width="3" height="3" transform="translate(-1680 110)" fill="#bebebe"/><rect width="3" height="3" transform="translate(-1657 110)" fill="#bebebe"/><rect width="3" height="3" transform="translate(-1634 110)" fill="#bebebe"/><rect width="3" height="3" transform="translate(-1611 110)" fill="#bebebe"/><rect width="3" height="3" transform="translate(-1588 110)" fill="#bebebe"/><rect width="3" height="3" transform="translate(-1565 110)" fill="#bebebe"/><rect width="3" height="3" transform="translate(-1542 110)" fill="#bebebe"/><rect width="3" height="3" transform="translate(-1519 110)" fill="#bebebe"/><rect width="3" height="3" transform="translate(-1496 110)" fill="#bebebe"/><rect width="3" height="3" transform="translate(-1473 110)" fill="#bebebe"/><rect width="3" height="3" transform="translate(-1450 110)" fill="#bebebe"/><rect width="3" height="3" transform="translate(-1427 110)" fill="#bebebe"/><rect width="3" height="3" transform="translate(-1404 110)" fill="#bebebe"/><rect width="3" height="3" transform="translate(-1381 110)" fill="#bebebe"/><rect width="3" height="3" transform="translate(-1358 110)" fill="#bebebe"/><rect width="3" height="3" transform="translate(-1335 110)" fill="#bebebe"/><rect width="3" height="3" transform="translate(-1312 110)" fill="#bebebe"/><rect width="3" height="3" transform="translate(-1289 110)" fill="#bebebe"/><rect width="3" height="3" transform="translate(-1266 110)" fill="#bebebe"/><rect width="3" height="3" transform="translate(-1243 110)" fill="#bebebe"/><rect width="3" height="3" transform="translate(-1220 110)" fill="#bebebe"/><rect width="3" height="3" transform="translate(-1795 133)" fill="#bebebe"/><rect width="3" height="3" transform="translate(-1772 133)" fill="#bebebe"/><rect width="3" height="3" transform="translate(-1749 133)" fill="#bebebe"/><rect width="3" height="3" transform="translate(-1726 133)" fill="#bebebe"/><rect width="3" height="3" transform="translate(-1703 133)" fill="#bebebe"/><rect width="3" height="3" transform="translate(-1680 133)" fill="#bebebe"/><rect width="3" height="3" transform="translate(-1657 133)" fill="#bebebe"/><rect width="3" height="3" transform="translate(-1634 133)" fill="#bebebe"/><rect width="3" height="3" transform="translate(-1611 133)" fill="#bebebe"/><rect width="3" height="3" transform="translate(-1588 133)" fill="#bebebe"/><rect width="3" height="3" transform="translate(-1565 133)" fill="#bebebe"/><rect width="3" height="3" transform="translate(-1542 133)" fill="#bebebe"/><rect width="3" height="3" transform="translate(-1519 133)" fill="#bebebe"/><rect width="3" height="3" transform="translate(-1496 133)" fill="#bebebe"/><rect width="3" height="3" transform="translate(-1473 133)" fill="#bebebe"/><rect width="3" height="3" transform="translate(-1450 133)" fill="#bebebe"/><rect width="3" height="3" transform="translate(-1427 133)" fill="#bebebe"/><rect width="3" height="3" transform="translate(-1404 133)" fill="#bebebe"/><rect width="3" height="3" transform="translate(-1381 133)" fill="#bebebe"/><rect width="3" height="3" transform="translate(-1358 133)" fill="#bebebe"/><rect width="3" height="3" transform="translate(-1335 133)" fill="#bebebe"/><rect width="3" height="3" transform="translate(-1312 133)" fill="#bebebe"/><rect width="3" height="3" transform="translate(-1289 133)" fill="#bebebe"/><rect width="3" height="3" transform="translate(-1266 133)" fill="#bebebe"/><rect width="3" height="3" transform="translate(-1243 133)" fill="#bebebe"/><rect width="3" height="3" transform="translate(-1220 133)" fill="#bebebe"/><rect width="3" height="3" transform="translate(-1795 156)" fill="#bebebe"/><rect width="3" height="3" transform="translate(-1772 156)" fill="#bebebe"/><rect width="3" height="3" transform="translate(-1749 156)" fill="#bebebe"/><rect width="3" height="3" transform="translate(-1726 156)" fill="#bebebe"/><rect width="3" height="3" transform="translate(-1703 156)" fill="#bebebe"/><rect width="3" height="3" transform="translate(-1680 156)" fill="#bebebe"/><rect width="3" height="3" transform="translate(-1657 156)" fill="#bebebe"/><rect width="3" height="3" transform="translate(-1634 156)" fill="#bebebe"/><rect width="3" height="3" transform="translate(-1611 156)" fill="#bebebe"/><rect width="3" height="3" transform="translate(-1588 156)" fill="#bebebe"/><rect width="3" height="3" transform="translate(-1565 156)" fill="#bebebe"/><rect width="3" height="3" transform="translate(-1542 156)" fill="#bebebe"/><rect width="3" height="3" transform="translate(-1519 156)" fill="#bebebe"/><rect width="3" height="3" transform="translate(-1496 156)" fill="#bebebe"/><rect width="3" height="3" transform="translate(-1473 156)" fill="#bebebe"/><rect width="3" height="3" transform="translate(-1450 156)" fill="#bebebe"/><rect width="3" height="3" transform="translate(-1427 156)" fill="#bebebe"/><rect width="3" height="3" transform="translate(-1404 156)" fill="#bebebe"/><rect width="3" height="3" transform="translate(-1381 156)" fill="#bebebe"/><rect width="3" height="3" transform="translate(-1358 156)" fill="#bebebe"/><rect width="3" height="3" transform="translate(-1335 156)" fill="#bebebe"/><rect width="3" height="3" transform="translate(-1312 156)" fill="#bebebe"/><rect width="3" height="3" transform="translate(-1289 156)" fill="#bebebe"/><rect width="3" height="3" transform="translate(-1266 156)" fill="#bebebe"/><rect width="3" height="3" transform="translate(-1243 156)" fill="#bebebe"/><rect width="3" height="3" transform="translate(-1220 156)" fill="#bebebe"/><rect width="3" height="3" transform="translate(-1795 179)" fill="#bebebe"/><rect width="3" height="3" transform="translate(-1772 179)" fill="#bebebe"/><rect width="3" height="3" transform="translate(-1749 179)" fill="#bebebe"/><rect width="3" height="3" transform="translate(-1726 179)" fill="#bebebe"/><rect width="3" height="3" transform="translate(-1703 179)" fill="#bebebe"/><rect width="3" height="3" transform="translate(-1680 179)" fill="#bebebe"/><rect width="3" height="3" transform="translate(-1657 179)" fill="#bebebe"/><rect width="3" height="3" transform="translate(-1634 179)" fill="#bebebe"/><rect width="3" height="3" transform="translate(-1611 179)" fill="#bebebe"/><rect width="3" height="3" transform="translate(-1588 179)" fill="#bebebe"/><rect width="3" height="3" transform="translate(-1565 179)" fill="#bebebe"/><rect width="3" height="3" transform="translate(-1542 179)" fill="#bebebe"/><rect width="3" height="3" transform="translate(-1519 179)" fill="#bebebe"/><rect width="3" height="3" transform="translate(-1496 179)" fill="#bebebe"/><rect width="3" height="3" transform="translate(-1473 179)" fill="#bebebe"/><rect width="3" height="3" transform="translate(-1450 179)" fill="#bebebe"/><rect width="3" height="3" transform="translate(-1427 179)" fill="#bebebe"/><rect width="3" height="3" transform="translate(-1404 179)" fill="#bebebe"/><rect width="3" height="3" transform="translate(-1381 179)" fill="#bebebe"/><rect width="3" height="3" transform="translate(-1358 179)" fill="#bebebe"/><rect width="3" height="3" transform="translate(-1335 179)" fill="#bebebe"/><rect width="3" height="3" transform="translate(-1312 179)" fill="#bebebe"/><rect width="3" height="3" transform="translate(-1289 179)" fill="#bebebe"/><rect width="3" height="3" transform="translate(-1266 179)" fill="#bebebe"/><rect width="3" height="3" transform="translate(-1243 179)" fill="#bebebe"/><rect width="3" height="3" transform="translate(-1220 179)" fill="#bebebe"/><rect width="3" height="3" transform="translate(-1795 202)" fill="#bebebe"/><rect width="3" height="3" transform="translate(-1772 202)" fill="#bebebe"/><rect width="3" height="3" transform="translate(-1749 202)" fill="#bebebe"/><rect width="3" height="3" transform="translate(-1726 202)" fill="#bebebe"/><rect width="3" height="3" transform="translate(-1703 202)" fill="#bebebe"/><rect width="3" height="3" transform="translate(-1680 202)" fill="#bebebe"/><rect width="3" height="3" transform="translate(-1657 202)" fill="#bebebe"/><rect width="3" height="3" transform="translate(-1634 202)" fill="#bebebe"/><rect width="3" height="3" transform="translate(-1611 202)" fill="#bebebe"/><rect width="3" height="3" transform="translate(-1588 202)" fill="#bebebe"/><rect width="3" height="3" transform="translate(-1565 202)" fill="#bebebe"/><rect width="3" height="3" transform="translate(-1542 202)" fill="#bebebe"/><rect width="3" height="3" transform="translate(-1519 202)" fill="#bebebe"/><rect width="3" height="3" transform="translate(-1496 202)" fill="#bebebe"/><rect width="3" height="3" transform="translate(-1473 202)" fill="#bebebe"/><rect width="3" height="3" transform="translate(-1450 202)" fill="#bebebe"/><rect width="3" height="3" transform="translate(-1427 202)" fill="#bebebe"/><rect width="3" height="3" transform="translate(-1404 202)" fill="#bebebe"/><rect width="3" height="3" transform="translate(-1381 202)" fill="#bebebe"/><rect width="3" height="3" transform="translate(-1358 202)" fill="#bebebe"/><rect width="3" height="3" transform="translate(-1335 202)" fill="#bebebe"/><rect width="3" height="3" transform="translate(-1312 202)" fill="#bebebe"/><rect width="3" height="3" transform="translate(-1289 202)" fill="#bebebe"/><rect width="3" height="3" transform="translate(-1266 202)" fill="#bebebe"/><rect width="3" height="3" transform="translate(-1243 202)" fill="#bebebe"/><rect width="3" height="3" transform="translate(-1220 202)" fill="#bebebe"/></g></svg>