<svg id="search-icon" xmlns="http://www.w3.org/2000/svg" width="512" height="512" viewBox="0 0 512 512">
  <g id="Group_36" data-name="Group 36">
    <g id="Group_35" data-name="Group 35">
      <path id="Path_9" data-name="Path 9" d="M225.474,0C101.151,0,0,101.151,0,225.474S101.151,450.948,225.474,450.948,450.948,349.8,450.948,225.474,349.8,0,225.474,0Zm0,409.323c-101.373,0-183.848-82.475-183.848-183.848S124.1,41.626,225.474,41.626,409.322,124.1,409.322,225.474,326.847,409.323,225.474,409.323Z"/>
    </g>
  </g>
  <g id="Group_38" data-name="Group 38">
    <g id="Group_37" data-name="Group 37">
      <path id="Path_10" data-name="Path 10" d="M505.9,476.472,386.574,357.144a20.81,20.81,0,0,0-29.43,29.43L476.472,505.9a20.81,20.81,0,1,0,29.43-29.43Z"/>
    </g>
  </g>
</svg>
